<svg id="Capa_1" data-name="Capa 1" xmlns="http://www.w3.org/2000/svg" viewBox="0 0 1000 920"><defs><style>.cls-1{fill:#9a9a9a;}.cls-2{fill:#c6c5c4;}.cls-3{fill:#fff;}.cls-4{fill:#202121;}</style></defs><polygon class="cls-1" points="296.34 805.62 69.51 805.62 58 781.62 284.83 781.62 296.34 805.62"/><polygon class="cls-2" points="522.4 805.62 296.34 805.62 284.83 781.62 510.88 781.62 522.4 805.62"/><polygon class="cls-3" points="934.22 805.62 522.4 805.62 510.88 781.62 922.71 781.62 934.22 805.62"/><path class="cls-3" d="M186.72,665.83a46.2,46.2,0,0,1-3.89,6q-2.75,3.72-5.8,7.37a68.07,68.07,0,0,1-6,6.29c-1.93,1.76-3.34,2.65-4.22,2.65h-51l-9.44,26L122.13,699h38.26l-23.68,22.36h-33l-3.64,9.93h63.42c-.11.22-.38.69-.82,1.41s-.89,1.46-1.33,2.24-.88,1.49-1.32,2.15a13.79,13.79,0,0,1-.83,1.16,51.42,51.42,0,0,1-4.06,4.63c-1.71,1.77-3.39,3.46-5,5s-3.12,3-4.39,4.06a13.35,13.35,0,0,1-2.07,1.66H60.37l32-87.77Z"/><path class="cls-3" d="M163.2,753.6l32-87.77h31.63L203,731.24h52.49a15.63,15.63,0,0,1-1.91,2.82c-1.38,1.88-3.12,4.05-5.21,6.54s-4.31,5-6.63,7.45a56,56,0,0,1-5.79,5.55Z"/><path class="cls-3" d="M381.62,665.83a45.16,45.16,0,0,1-3.89,6q-2.73,3.72-5.79,7.37a69.46,69.46,0,0,1-6,6.29c-1.93,1.76-3.34,2.65-4.22,2.65h-51l-9.44,26L317,699h38.25l-23.68,22.36H298.66L295,731.24h63.42c-.11.22-.39.69-.83,1.41s-.88,1.46-1.32,2.24-.89,1.49-1.33,2.15a11.65,11.65,0,0,1-.83,1.16,49.57,49.57,0,0,1-4.05,4.63c-1.72,1.77-3.4,3.46-5.05,5s-3.12,3-4.39,4.06a13.35,13.35,0,0,1-2.07,1.66h-83.3l32-87.77Z"/><path class="cls-3" d="M374.5,713a42.93,42.93,0,0,1,3.48-16.4,54.14,54.14,0,0,1,9.44-15.23,52.39,52.39,0,0,1,13.74-11.18,33.26,33.26,0,0,1,16.56-4.39h68.39q-4.8,6.3-9.68,11.84a107.31,107.31,0,0,1-10.68,10.52H422.69a9.12,9.12,0,0,0-4.55,1.4,22.09,22.09,0,0,0-4.64,3.73,32.73,32.73,0,0,0-4.06,5.22,28.69,28.69,0,0,0-2.81,5.71A24.49,24.49,0,0,0,405.3,711a15.9,15.9,0,0,0,1.66,6.71,28.24,28.24,0,0,0,4.22,6.54,26.43,26.43,0,0,0,5.63,5,10.81,10.81,0,0,0,5.88,2h39.58q-3.81,5.64-8.61,11.51a71.38,71.38,0,0,1-11.1,10.85H429.31a109.41,109.41,0,0,1-20-1.82,54.12,54.12,0,0,1-17.56-6.38,35.18,35.18,0,0,1-12.5-12.34q-4.71-7.77-4.72-19.7Z"/><path class="cls-3" d="M511.78,688.19h-31.3V688a18.92,18.92,0,0,1,2.41-3.64q2.24-3,5.29-6.63c2.05-2.42,4.14-4.77,6.3-7a33.17,33.17,0,0,1,5.54-4.89h83a46.2,46.2,0,0,1-3.89,6q-2.73,3.72-5.8,7.37a68.07,68.07,0,0,1-6,6.29c-1.93,1.76-3.34,2.65-4.22,2.65H543.58L519.73,753.6H487.94Z"/><path class="cls-3" d="M590.77,665.83h73.86a15.71,15.71,0,0,1,9.19,2.49,17.27,17.27,0,0,1,5.54,6.29,27.54,27.54,0,0,1,2.74,8.28,51.3,51.3,0,0,1,.74,8.28q0,8.45-4.14,13.91a30.39,30.39,0,0,1-10.35,8.69,49.34,49.34,0,0,1-13.74,4.64,130.23,130.23,0,0,1-14.16,1.9l32.46,33.29H637.47l-34.11-31.47-1.83,1.33L590.61,753.6h-31.8Zm60,25.34a4.66,4.66,0,0,0-.5-2.24c-.33-.6-1.16-.91-2.48-.91H614.45L605,713.85l14.57-14.73h26.5a3.68,3.68,0,0,0,3.56-2.24,9.23,9.23,0,0,0,1.08-3.89Z"/><path class="cls-3" d="M687.48,702.59l13.08-36.76h31.3q-5.8,16.89-8.94,26.25t-4.64,14q-1.49,4.63-1.82,5.88a8.09,8.09,0,0,0-.33,1.74,22.67,22.67,0,0,0-.83,5.3q0,5.79,2.82,9a9.37,9.37,0,0,0,7.45,3.23h8.11a16.62,16.62,0,0,0,7.37-1.65,24.68,24.68,0,0,0,6-4.14,34.29,34.29,0,0,0,4.64-5.3,40.71,40.71,0,0,0,3.15-5.14l17.88-49.18h31.47l-14.91,40.9a195.59,195.59,0,0,1-8.44,20.12,63.19,63.19,0,0,1-9.77,14.66,36.6,36.6,0,0,1-12.59,9,42.88,42.88,0,0,1-17.06,3.07H722.09a115.9,115.9,0,0,1-19.29-1.33,34.24,34.24,0,0,1-12.34-4.22,16.38,16.38,0,0,1-6.62-7.53,28.48,28.48,0,0,1-2-11.27,29.78,29.78,0,0,1,.25-3.8c.16-1.33.36-2.76.58-4.31q.83-4.3,2.07-8.61T687.48,702.59Z"/><path class="cls-3" d="M878.25,753.6l17.88-49.35-45,49.35H839.66l-9.11-49.35L812.67,753.6h-31.8l32-87.77h40.08l8.44,44,40.58-44H942L910,753.6Z"/><path class="cls-3" d="M714.88,840.94H704.49v-.06a6.35,6.35,0,0,1,.8-1.21c.49-.66,1.08-1.39,1.76-2.2s1.37-1.58,2.09-2.33a10.93,10.93,0,0,1,1.84-1.63h27.56a14.33,14.33,0,0,1-1.3,2c-.6.83-1.24,1.64-1.92,2.45a22.57,22.57,0,0,1-2,2.09c-.64.59-1.11.88-1.41.88h-6.49l-7.92,21.72H707Z"/><path class="cls-3" d="M772.69,833.51a15.06,15.06,0,0,1-1.29,2c-.61.83-1.25,1.64-1.93,2.45a22.57,22.57,0,0,1-2,2.09c-.64.59-1.11.88-1.4.88H749.15L746,849.57l5.23-5.06h12.7l-7.86,7.43h-11l-1.21,3.3H765c0,.07-.13.23-.28.47l-.44.74a7.87,7.87,0,0,1-.44.71,3.32,3.32,0,0,1-.27.39,17,17,0,0,1-1.35,1.54q-.86.88-1.68,1.68c-.55.53-1,1-1.45,1.35a4.17,4.17,0,0,1-.69.54H730.72l10.62-29.15Z"/><path class="cls-3" d="M770.54,849.19a14.33,14.33,0,0,1,1.16-5.45,18.08,18.08,0,0,1,3.13-5.06A17.53,17.53,0,0,1,779.4,835a11,11,0,0,1,5.5-1.46h22.71q-1.59,2.1-3.21,3.94a35.51,35.51,0,0,1-3.55,3.49h-14.3a3,3,0,0,0-1.51.47,6.93,6.93,0,0,0-1.54,1.23,10.62,10.62,0,0,0-1.35,1.74,9.77,9.77,0,0,0-.94,1.89,8.42,8.42,0,0,0-.44,2.26,5.41,5.41,0,0,0,.55,2.23,9.4,9.4,0,0,0,1.41,2.17,8.53,8.53,0,0,0,1.87,1.65,3.61,3.61,0,0,0,1.95.66h13.14q-1.26,1.88-2.86,3.82a23.7,23.7,0,0,1-3.68,3.6h-4.4a36.66,36.66,0,0,1-6.66-.6,17.94,17.94,0,0,1-5.83-2.12,11.72,11.72,0,0,1-4.15-4.1,12.47,12.47,0,0,1-1.57-6.54Z"/><path class="cls-3" d="M854.64,853.26a24.42,24.42,0,0,1-5.12,5.72l2.7,5.22h-11l-.94-1.54h-4.95a33.81,33.81,0,0,1-5.88-.49,14.84,14.84,0,0,1-4.92-1.73,9.65,9.65,0,0,1-3.39-3.33,10.2,10.2,0,0,1-1.26-5.34,19.89,19.89,0,0,1,.16-2.47,17.36,17.36,0,0,1,2-6,20,20,0,0,1,4-5,19.74,19.74,0,0,1,5.2-3.46,13.71,13.71,0,0,1,5.74-1.3h7.26a20.8,20.8,0,0,1,5.42.66,11.93,11.93,0,0,1,4.18,2,9,9,0,0,1,2.7,3.29,10.37,10.37,0,0,1,1,4.57,13,13,0,0,1-.08,1.37c-.06.48-.12,1-.2,1.49A16.64,16.64,0,0,1,854.64,853.26Zm-10.18-4.57,1.1,2.15.25-.44a3.21,3.21,0,0,0,.25-.49,4.42,4.42,0,0,0,.6-1.22l.22-.55c.08-.36.11-.53.11-.49a1.48,1.48,0,0,0,.06-.55v-.66a8.51,8.51,0,0,0-.22-2,4.77,4.77,0,0,0-.8-1.76,4.28,4.28,0,0,0-1.54-1.3,5.34,5.34,0,0,0-2.45-.49h-3.79a4.61,4.61,0,0,0-1.9.47,10.25,10.25,0,0,0-2,1.23,14.37,14.37,0,0,0-1.84,1.74,9.8,9.8,0,0,0-1.35,1.89c-.18.44-.34.86-.49,1.24a4.66,4.66,0,0,0-.28,1,.83.83,0,0,0,0,.38v.33a6.27,6.27,0,0,0,.38,2.07,7.63,7.63,0,0,0,1,2,5.64,5.64,0,0,0,1.54,1.43,3.45,3.45,0,0,0,1.87.55h.71l-3-6.55Z"/><path class="cls-3" d="M865,833.51h24.53a5.24,5.24,0,0,1,3.06.83,5.87,5.87,0,0,1,1.84,2.09,9.27,9.27,0,0,1,.91,2.75,17.35,17.35,0,0,1,.24,2.75,7.41,7.41,0,0,1-1.37,4.62,10.15,10.15,0,0,1-3.44,2.89,16.45,16.45,0,0,1-4.56,1.54,43.81,43.81,0,0,1-4.71.63l10.78,11H880.54l-11.33-10.45-.6.45-3.63,10H854.42Zm19.91,8.42a1.53,1.53,0,0,0-.16-.74c-.11-.2-.39-.31-.83-.31H872.9l-3.14,8.58,4.84-4.89h8.8a1.24,1.24,0,0,0,1.19-.74,3.21,3.21,0,0,0,.35-1.3Z"/><path class="cls-3" d="M931.75,853a19.71,19.71,0,0,1-9.6,8.42,16.32,16.32,0,0,1-6.3,1.26h-5.5a30,30,0,0,1-5.61-.49,12.73,12.73,0,0,1-4.45-1.68,8.24,8.24,0,0,1-2.94-3.22,10.81,10.81,0,0,1-1.08-5.11q0-.66.06-1.38c0-.47.09-1,.16-1.48a17.14,17.14,0,0,1,2-5.94,19.84,19.84,0,0,1,4-5,20.22,20.22,0,0,1,5.2-3.5,13.43,13.43,0,0,1,5.74-1.32h7.26q6.66,0,10.1,2.29t3.43,7.56a20.33,20.33,0,0,1-.33,3.52A17.29,17.29,0,0,1,931.75,853Zm-25-4.07v.33a6.27,6.27,0,0,0,.38,2.07,7.63,7.63,0,0,0,1.05,2,5.64,5.64,0,0,0,1.54,1.43,3.42,3.42,0,0,0,1.87.55h3.63a4.26,4.26,0,0,0,1.57-.47,13.25,13.25,0,0,0,2.11-1.24A16.26,16.26,0,0,0,921,851.8a7.83,7.83,0,0,0,1.49-1.89,4.42,4.42,0,0,0,.6-1.22l.22-.55c.08-.36.11-.53.11-.49,0-.29.07-.6.09-.91s0-.63,0-1a9.52,9.52,0,0,0-.16-1.76,3.87,3.87,0,0,0-.66-1.57,3.52,3.52,0,0,0-1.35-1.1,5.22,5.22,0,0,0-2.23-.41H914.7a4.61,4.61,0,0,0-1.9.47,10.25,10.25,0,0,0-2,1.23,14.37,14.37,0,0,0-1.84,1.74,9.8,9.8,0,0,0-1.35,1.89c-.18.44-.35.86-.49,1.24a4.66,4.66,0,0,0-.28,1A.83.83,0,0,0,906.78,848.91Z"/><path class="cls-4" d="M643.85,286.76,550.3,237.42a1.45,1.45,0,0,1-.7-.82L501.14,92.1a1.44,1.44,0,0,0-2.73,0L449.07,236.61a1.45,1.45,0,0,1-.69.81l-92.7,49.34a1.45,1.45,0,0,0,0,2.56l92.59,48.41a1.44,1.44,0,0,1,.74,1L498.36,581a1.44,1.44,0,0,0,2.83,0l48.46-242.3a1.45,1.45,0,0,1,.75-1l93.44-48.41A1.44,1.44,0,0,0,643.85,286.76Zm-70.69,1.69-47.57,24.64a.73.73,0,0,0-.38.51L500.54,437a.74.74,0,0,1-1.45,0L474,313.6a.76.76,0,0,0-.38-.51l-47.13-24.64a.73.73,0,0,1,0-1.3L473.65,262a.8.8,0,0,0,.36-.41L499.12,188a.73.73,0,0,1,1.39,0l24.67,73.56a.77.77,0,0,0,.35.42l47.63,25.12A.73.73,0,0,1,573.16,288.45Z"/><path class="cls-1" d="M520.73,57.47,500.1,82.76a1,1,0,0,1-.78.37c-10.33.05-24.95,1.59-34.56,4.89-67.37,23.13-118.22,122-119.26,241.12,0,1.25,0,2.51,0,3.77,0,.69,0,1.38,0,2.07,0,.24,0,.49,0,.74,0,.55,0,1.1,0,1.65,0,117.7,48.65,216.4,114.15,243l.06,0a66.14,66.14,0,0,0,23.22,7.21c-51.25-4.27-159.26-67.22-161.49-255.33a1,1,0,0,1,1.75-.74l20.45,20.27a1,1,0,0,0,1.74-.86C341,319.7,310.7,57.6,519.92,55.8A1,1,0,0,1,520.73,57.47Z"/><path class="cls-2" d="M478.74,615.13l20.77-24.49a1,1,0,0,1,.77-.36c10.32-.07,24.72-2.36,34.33-5.66,67.37-23.13,118.22-122,119.26-241.12,0-1.25,0-2.51,0-3.77,0-.69,0-1.38,0-2.07,0-.24,0-.49,0-.74,0-.55,0-1.1,0-1.65,0-117.7-48.64-216.4-114.15-243l0,0a66.25,66.25,0,0,0-23.23-7.21c51.25,4.27,159.25,67.21,161.5,255.28a1,1,0,0,1-1.78.76l-20.4-20.35a1,1,0,0,0-1.76.87c4.38,31.49,34.5,293.33-174.49,295.21A1,1,0,0,1,478.74,615.13Z"/></svg>